#!OML:ASF I:\Actors\actors\Patient Classification 2\Patient 1\Session 1\actor1.ASF
:FULLY-SPECIFIED
:DEGREES
336
root -0.935933 17.9888 5.97826 -3.21887 -5.65687 -5.15276
lowerback 1.75053 1.05334 7.52016
upperback -2.50195 1.74748 2.73535
thorax -3.44508 0.709501 -1.45663
lowerneck -18.6294 0.233832 4.31277
upperneck 32.2202 -1.62428 1.12074
head 14.1304 -0.00406687 -0.576434
rclavicle 1.2424e-014 2.22639e-014
rhumerus 100.272 64.1252 19.0118
rradius 111.418
rwrist -2.69021
rhand -17.6509 -9.34099
rfingers 7.12502
rthumb 8.60724 -39.1455
lclavicle 1.2424e-014 2.22639e-014
lhumerus 43.1129 4.47734 15.9825
lradius 106.384
lwrist 23.4867
lhand -11.7655 -28.0003
lfingers 7.12502
lthumb 14.283 1.48848
rfemur 0 0 0
rtibia 0
rfoot 0 0
rtoes 0
lfemur 24.5398 -4.41499 -12.2206
ltibia -20.6797
lfoot -4.55896 20.2453
ltoes -8.24523
337
root -0.934475 17.991 5.97248 -3.16792 -5.68077 -5.20466
lowerback 1.7599 1.07981 7.40033
upperback -2.47727 1.77776 2.72651
thorax -3.42455 0.72877 -1.4008
lowerneck -18.6429 0.189114 4.24351
upperneck 32.264 -1.70823 1.23247
head 14.1538 -0.0318601 -0.533992
rclavicle -1.58034e-014 -7.55382e-015
rhumerus 101.022 64.7861 19.8909
rradius 111.515
rwrist -2.20806
rhand -18.2949 -7.14846
rfingers 7.12502
rthumb 7.98571 -36.9776
lclavicle -1.58034e-014 -7.55382e-015
lhumerus 43.1282 4.54863 16.099
lradius 106.3
lwrist 23.4791
lhand -11.8481 -28.0872
lfingers 7.12502
lthumb 14.2034 1.40717
rfemur 0 0 0
rtibia 0
rfoot 0 0
rtoes 0
lfemur 24.4619 -4.52843 -12.1897
ltibia -20.6471
lfoot -4.61948 20.3896
ltoes -8.33913
338
root -0.933201 17.9934 5.96729 -3.14556 -5.72061 -5.19224
lowerback 1.81784 1.16253 7.26649
upperback -2.41803 1.88472 2.70402
thorax -3.38963 0.787408 -1.35534
lowerneck -18.7464 0.0953289 4.11922
upperneck 32.2492 -1.81807 1.26126
head 14.1688 -0.0900191 -0.520328
rclavicle -9.44227e-015 -3.18055e-015
rhumerus 101.237 65.1118 20.3752
rradius 111.682
rwrist -1.87499
rhand -19.1065 -5.43778
rfingers 7.12502
rthumb 7.20235 -35.2952
lclavicle -9.44227e-015 -3.18055e-015
lhumerus 43.2666 4.69024 16.2873
lradius 106.255
lwrist 23.5043
lhand -11.914 -28.0909
lfingers 7.12502
lthumb 14.1399 1.40796
rfemur 0 0 0
rtibia 0
rfoot 0 0
rtoes 0
lfemur 24.4198 -4.59672 -12.2253
ltibia -20.6245
lfoot -4.6942 20.4748
ltoes -8.07274
339
root -0.933647 17.9957 5.96184 -3.11888 -5.79212 -5.19707
lowerback 1.9196 1.32336 7.2043
upperback -2.31809 2.09983 2.68342
thorax -3.32748 0.899536 -1.35273
lowerneck -19.0652 -0.0840225 3.78994
upperneck 32.2288 -2.00478 1.32583
head 14.2294 -0.199764 -0.471197
rclavicle -1.4064e-014 -2.3059e-014
rhumerus 100.702 65.1853 20.2536
rradius 111.734
rwrist -1.33903
rhand -19.6478 -4.13302
rfingers 7.12502
rthumb 6.67983 -34.0077
lclavicle -1.4064e-014 -2.3059e-014
lhumerus 43.4952 4.92561 16.516
lradius 106.321
lwrist 23.6505
lhand -11.8285 -28.1404
lfingers 7.12502
lthumb 14.2223 1.35268
rfemur 0 0 0
rtibia 0
rfoot 0 0
rtoes 0
lfemur 24.3807 -4.62579 -12.23
ltibia -20.6078
lfoot -4.74855 20.5438
ltoes -7.753
340
root -0.933635 17.9988 5.95401 -3.07093 -5.85683 -5.24718
lowerback 2.03225 1.46805 7.17531
upperback -2.24627 2.29747 2.66258
thorax -3.30145 1.00044 -1.36875
lowerneck -19.3952 -0.245275 3.43504
upperneck 32.2837 -2.19774 1.5048
head 14.3303 -0.296767 -0.372774
rclavicle 9.88954e-015 3.93594e-014
rhumerus 100.037 65.1654 19.874
rradius 111.672
rwrist -0.591954
rhand -19.8278 -3.41453
rfingers 7.12502
rthumb 6.50608 -33.2946
lclavicle 9.88954e-015 3.93594e-014
lhumerus 43.659 5.04879 16.6327
lradius 106.43
lwrist 23.7758
lhand -11.6937 -28.1474
lfingers 7.12502
lthumb 14.3522 1.33645
rfemur 0 0 0
rtibia 0
rfoot 0 0
rtoes 0
lfemur 24.3154 -4.6438 -12.1806
ltibia -20.5966
lfoot -4.75014 20.6163
ltoes -7.80385
341
root -0.93216 18.0016 5.9455 -3.03617 -5.91034 -5.3177
lowerback 2.13136 1.53047 7.10253
upperback -2.21744 2.38548 2.64528
thorax -3.32255 1.0457 -1.35273
lowerneck -19.5441 -0.319488 3.21853
upperneck 32.3659 -2.33089 1.7596
head 14.4067 -0.340801 -0.255925
rclavicle -1.78906e-014 1.27222e-014
rhumerus 99.588 64.9893 19.4598
rradius 111.587
rwrist 0.311345
rhand -19.9375 -2.95698
rfingers 7.12502
rthumb 6.40018 -32.8403
lclavicle -1.78906e-014 1.27222e-014
lhumerus 43.7557 5.00445 16.6008
lradius 106.371
lwrist 23.8156
lhand -11.6008 -28.2139
lfingers 7.12502
lthumb 14.4417 1.2636
rfemur 0 0 0
rtibia 0
rfoot 0 0
rtoes 0
lfemur 24.2673 -4.71892 -12.127
ltibia -20.5898
lfoot -4.75379 20.7299
ltoes -8.04451
342
root -0.930749 18.002 5.93872 -3.04426 -5.97548 -5.38726
lowerback 2.20778 1.57549 7.00037
upperback -2.15677 2.4451 2.63822
thorax -3.30132 1.0796 -1.30769
lowerneck -19.6243 -0.364972 3.15164
upperneck 32.3717 -2.41753 1.86961
head 14.4299 -0.369523 -0.21533
rclavicle 2.6339e-015 -1.66979e-014
rhumerus 98.8924 64.5265 18.7363
rradius 111.468
rwrist 1.62884
rhand -20.1521 -2.28227
rfingers 7.12502
rthumb 6.193 -32.1717
lclavicle 2.6339e-015 -1.66979e-014
lhumerus 43.8993 4.90372 16.5929
lradius 106.216
lwrist 23.7797
lhand -11.4743 -28.3531
lfingers 7.12502
lthumb 14.5635 1.11563
rfemur 0 0 0
rtibia 0
rfoot 0 0
rtoes 0
lfemur 24.2765 -4.89997 -12.1012
ltibia -20.58
lfoot -4.84475 20.9431
ltoes -8.00516
343
root -0.92928 18.0021 5.932 -3.07758 -6.03585 -5.39599
lowerback 2.28135 1.62469 6.87249
upperback -2.08014 2.50703 2.60139
thorax -3.26147 1.11572 -1.27898
lowerneck -19.6298 -0.394028 3.21292
upperneck 32.288 -2.46049 1.81788
head 14.3913 -0.389715 -0.254827
rclavicle 2.54941e-014 2.10712e-014
rhumerus 97.845 63.9154 17.5864
rradius 111.305
rwrist 3.44588
rhand -20.3846 -1.68797
rfingers 7.12502
rthumb 5.96847 -31.5839
lclavicle 2.54941e-014 2.10712e-014
lhumerus 43.9746 4.82963 16.5388
lradius 106.223
lwrist 23.6983
lhand -11.4893 -28.2685
lfingers 7.12502
lthumb 14.5491 1.20129
rfemur 0 0 0
rtibia 0
rfoot 0 0
rtoes 0
lfemur 24.307 -5.13315 -12.16
ltibia -20.5643
lfoot -4.96039 21.209
ltoes -7.5714
344
root -0.927238 18.0039 5.92422 -3.10385 -6.06147 -5.36167
lowerback 2.38255 1.65501 6.73579
upperback -2.03889 2.54739 2.53649
thorax -3.27491 1.13867 -1.27491
lowerneck -19.5724 -0.416176 3.24855
upperneck 32.1939 -2.5049 1.83507
head 14.3363 -0.4047 -0.261699
rclavicle -2.03754e-014 2.5842e-014
rhumerus 96.6612 63.2487 16.1877
rradius 111.145
rwrist 5.67441
rhand -20.7121 -1.78035
rfingers 7.12502
rthumb 5.65232 -31.685
lclavicle -2.03754e-014 2.5842e-014
lhumerus 43.9637 4.77999 16.4021
lradius 106.301
lwrist 23.6647
lhand -11.5527 -28.1917
lfingers 7.12502
lthumb 14.488 1.28244
rfemur 0 0 0
rtibia 0
rfoot 0 0
rtoes 0
lfemur 24.3127 -5.38944 -12.2747
ltibia -20.5436
lfoot -5.04421 21.4737
ltoes -7.32693
345
root -0.924901 18.0055 5.91663 -3.11383 -6.0903 -5.36941
lowerback 2.50957 1.69161 6.63434
upperback -2.01389 2.60116 2.49112
thorax -3.31867 1.16647 -1.272
lowerneck -19.619 -0.457166 3.18638
upperneck 32.1872 -2.58298 1.94224
head 14.3464 -0.430161 -0.22152
rclavicle 7.95139e-016 -3.02153e-014
rhumerus 95.2478 62.4433 14.4699
rradius 111.073
rwrist 7.75628
rhand -21.0302 -2.08543
rfingers 7.12502
rthumb 5.34514 -31.998
lclavicle 7.95139e-016 -3.02153e-014
lhumerus 44.0209 4.6268 16.3713
lradius 106.292
lwrist 23.6638
lhand -11.4932 -28.2758
lfingers 7.12502
lthumb 14.5453 1.19421
rfemur 0 0 0
rtibia 0
rfoot 0 0
rtoes 0
lfemur 24.3089 -5.63383 -12.3384
ltibia -20.5268
lfoot -5.14744 21.7296
ltoes -7.21192
346
root -0.922576 18.0076 5.90956 -3.11424 -6.14711 -5.40288
lowerback 2.64693 1.73954 6.57172
upperback -2.00348 2.6733 2.45134
thorax -3.38108 1.20172 -1.28644
lowerneck -19.6771 -0.481073 3.1114
upperneck 32.2176 -2.62448 2.026
head 14.3756 -0.443775 -0.182119
rclavicle -9.24349e-015 5.56597e-015
rhumerus 93.6484 61.5366 12.4428
rradius 111.094
rwrist 9.5947
rhand -20.9134 -2.46869
rfingers 7.12502
rthumb 5.45797 -32.3784
lclavicle -9.24349e-015 5.56597e-015
lhumerus 44.0662 4.37931 16.3747
lradius 106.318
lwrist 23.666
lhand -11.386 -28.2001
lfingers 7.12502
lthumb 14.6487 1.26249
rfemur 0 0 0
rtibia 0
rfoot 0 0
rtoes 0
lfemur 24.3196 -5.85129 -12.3687
ltibia -20.5288
lfoot -5.27145 21.9971
ltoes -6.81482
347
root -0.920909 18.0104 5.90301 -3.11097 -6.19558 -5.43743
lowerback 2.78899 1.77892 6.54167
upperback -1.99774 2.73573 2.40714
thorax -3.45022 1.231 -1.32348
lowerneck -19.7427 -0.48152 3.06392
upperneck 32.2709 -2.62931 2.07287
head 14.4158 -0.442883 -0.15587
rclavicle -8.15017e-015 1.03368e-014
rhumerus 92.0514 60.72 10.2608
rradius 111.051
rwrist 10.5662
rhand -20.0177 -3.24394
rfingers 7.12502
rthumb 6.32271 -33.1296
lclavicle -8.15017e-015 1.03368e-014
lhumerus 43.9635 4.22899 16.318
lradius 106.469
lwrist 23.7184
lhand -11.326 -28.0691
lfingers 7.12502
lthumb 14.7065 1.38924
rfemur 0 0 0
rtibia 0
rfoot 0 0
rtoes 0
lfemur 24.3365 -6.00419 -12.3797
ltibia -20.5512
lfoot -5.33775 22.1955
ltoes -6.569
348
root -0.92031 18.0121 5.89605 -3.09146 -6.23517 -5.49321
lowerback 2.92584 1.79749 6.53168
upperback -1.99192 2.7708 2.36637
thorax -3.51753 1.24627 -1.36672
lowerneck -19.8688 -0.478598 3.08871
upperneck 32.3708 -2.64595 2.07564
head 14.4889 -0.442753 -0.162391
rclavicle -6.28657e-015 -2.26615e-014
rhumerus 90.9956 60.1083 8.51453
rradius 110.888
rwrist 9.35368
rhand -19.2918 -4.64382
rfingers 7.12502
rthumb 7.02344 -34.5073
lclavicle -6.28657e-015 -2.26615e-014
lhumerus 43.8115 4.10845 16.2587
lradius 106.583
lwrist 23.7371
lhand -11.3117 -28.1195
lfingers 7.12502
lthumb 14.7202 1.33786
rfemur 0 0 0
rtibia 0
rfoot 0 0
rtoes 0
lfemur 24.3205 -6.06643 -12.3324
ltibia -20.5722
lfoot -5.31832 22.2788
ltoes -6.69837
349
root -0.91981 18.0131 5.88903 -3.07421 -6.27528 -5.53117
lowerback 3.04186 1.75639 6.49149
upperback -2.02699 2.72426 2.2907
thorax -3.62094 1.21951 -1.42507
lowerneck -19.73 -0.409626 3.29376
upperneck 32.3488 -2.61097 2.07294
head 14.4468 -0.404788 -0.192
rclavicle 7.50412e-015 2.36554e-014
rhumerus 90.7818 59.7794 7.42701
rradius 110.798
rwrist 5.06077
rhand -18.8924 -6.84374
rfingers 7.12502
rthumb 7.40904 -36.694
lclavicle 7.50412e-015 2.36554e-014
lhumerus 43.5379 3.94247 16.064
lradius 106.647
lwrist 23.6634
lhand -11.2377 -28.1679
lfingers 7.12502
lthumb 14.7915 1.28426
rfemur 0 0 0
rtibia 0
rfoot 0 0
rtoes 0
lfemur 24.2889 -6.09082 -12.2935
ltibia -20.5757
lfoot -5.28466 22.3359
ltoes -6.91396
350
root -0.919059 18.0144 5.88347 -3.08656 -6.32248 -5.5069
lowerback 3.15303 1.68229 6.39952
upperback -2.09761 2.63139 2.17908
thorax -3.76241 1.16889 -1.48956
lowerneck -19.2933 -0.295347 3.59091
upperneck 32.1885 -2.52753 2.09565
head 14.2773 -0.337787 -0.217584
rclavicle 2.12203e-014 2.5842e-015
rhumerus 90.4552 59.7991 5.92567
rradius 111.161
rwrist -2.8411
rhand -16.4069 -9.88785
rfingers 7.12502
rthumb 9.80759 -39.6394
lclavicle 2.12203e-014 2.5842e-015
lhumerus 43.0487 3.7923 15.7649
lradius 106.818
lwrist 23.7334
lhand -11.1676 -28.0933
lfingers 7.12502
lthumb 14.859 1.35387
rfemur 0 0 0
rtibia 0
rfoot 0 0
rtoes 0
lfemur 24.2897 -6.08775 -12.3298
ltibia -20.5633
lfoot -5.28924 22.3989
ltoes -6.91798
